<?xml version="1.0" standalone="no"?>
<!DOCTYPE svg PUBLIC "-//W3C//DTD SVG 20010904//EN"
 "http://www.w3.org/TR/2001/REC-SVG-20010904/DTD/svg10.dtd">
<svg version="1.0" xmlns="http://www.w3.org/2000/svg"
 width="230.000000pt" height="230.000000pt" viewBox="0 0 230.000000 230.000000"
 preserveAspectRatio="xMidYMid meet">

<g transform="translate(0.000000,230.000000) scale(0.100000,-0.100000)"
fill="#000000" stroke="none">
<path d="M0 1150 l0 -1150 1150 0 1150 0 0 1150 0 1150 -1150 0 -1150 0 0
-1150z m2241 1100 c19 -10 19 -33 19 -1100 0 -672 -4 -1091 -9 -1095 -6 -3 -9
59 -7 162 2 93 1 174 -2 181 -2 6 -11 12 -19 12 -7 0 -25 11 -39 25 -14 14
-31 25 -39 25 -8 0 -25 12 -38 26 -21 22 -28 24 -46 15 -14 -8 -21 -21 -21
-39 0 -39 -16 -53 -46 -40 -13 6 -24 15 -24 20 0 4 -9 8 -20 8 -13 0 -24 10
-30 26 -14 35 -13 204 0 204 20 0 65 -28 95 -60 31 -33 115 -94 121 -87 4 4 6
548 2 551 -2 2 -38 15 -80 30 l-78 28 -2 275 -3 275 -55 22 c-30 12 -99 37
-153 56 -93 32 -98 33 -111 15 -14 -20 -25 -19 -123 16 -57 20 -63 24 -63 50
0 43 -17 35 -25 -11 -4 -22 -11 -42 -16 -46 -5 -3 -9 -16 -9 -30 0 -24 -1 -23
-40 13 -22 21 -40 44 -40 51 0 6 -9 12 -20 12 -17 0 -19 -5 -14 -25 5 -18 2
-25 -9 -25 -10 0 -15 9 -14 28 1 15 0 55 -1 88 l-2 62 -37 7 c-21 4 -65 18
-99 31 -33 13 -63 24 -67 24 -3 0 -7 -28 -9 -62 -4 -79 -14 -82 -102 -31 -60
35 -65 41 -66 73 l0 35 -85 26 c-46 14 -87 24 -90 21 -3 -3 -5 -29 -5 -57 0
-29 -3 -86 -6 -128 l-7 -75 -46 -19 c-25 -10 -49 -19 -53 -21 -3 -2 -4 6 -1
17 3 13 1 21 -7 21 -8 0 -11 -9 -7 -26 5 -27 -3 -38 -59 -80 -42 -33 -63 -28
-159 31 -69 43 -164 90 -169 83 -2 -1 -6 -65 -10 -140 l-6 -138 35 0 34 0 3
-222 c3 -251 2 -268 -18 -268 -26 0 -14 -20 21 -34 35 -15 35 -15 36 -83 4
-168 9 -228 19 -231 6 -2 32 -19 58 -38 119 -86 152 -106 167 -101 8 4 15 16
15 27 0 11 7 23 15 26 27 11 225 -95 225 -120 -1 -32 -29 -138 -40 -151 -10
-12 -6 -18 22 -35 18 -11 36 -21 39 -22 3 -2 9 -65 13 -140 l7 -138 -393 0
c-293 0 -397 3 -406 12 -9 9 -12 268 -12 1105 0 1029 1 1093 18 1102 24 14
2166 15 2193 1z m-1331 -988 c42 -26 97 -62 123 -80 l47 -33 0 -109 c0 -61 -4
-110 -8 -110 -5 0 -28 14 -50 30 -23 17 -45 30 -48 30 -4 0 -33 16 -65 35 -32
20 -77 39 -101 43 l-43 7 -5 130 c-3 72 -4 133 -2 137 4 9 46 -13 152 -80z
m750 -42 c38 -22 73 -40 78 -40 5 0 15 -7 22 -15 7 -8 27 -15 46 -15 18 0 36
-4 39 -10 3 -5 17 -10 29 -10 28 0 36 -21 36 -97 0 -41 -4 -53 -15 -53 -22 0
-128 58 -138 76 -14 25 -36 15 -96 -46 -63 -64 -109 -82 -97 -37 3 12 6 43 6
70 0 32 4 46 12 45 22 -5 21 43 -1 66 -11 11 -23 40 -27 64 -6 39 -5 42 15 42
13 0 53 -18 91 -40z m-817 -281 c34 -17 87 -44 117 -60 37 -20 64 -28 81 -25
23 4 27 1 33 -26 10 -52 7 -78 -9 -78 -17 0 -246 113 -286 141 -25 18 -31 42
-15 67 10 16 7 17 79 -19z m837 -688 c0 -104 -3 -196 -6 -205 -5 -14 -34 -16
-215 -16 -115 0 -209 2 -209 5 0 3 17 32 37 63 31 47 38 69 43 122 l5 65 49
24 c36 18 53 22 65 14 13 -9 22 -4 46 22 17 18 35 41 41 52 9 15 77 37 132 42
9 1 12 -43 12 -188z m68 141 c2 -8 -5 -11 -20 -9 -15 3 -24 12 -26 27 -4 23
-3 23 19 8 13 -8 25 -20 27 -26z"/>
</g>
</svg>
