<?xml version="1.0" standalone="no"?>
<!DOCTYPE svg PUBLIC "-//W3C//DTD SVG 20010904//EN"
 "http://www.w3.org/TR/2001/REC-SVG-20010904/DTD/svg10.dtd">
<svg version="1.0" xmlns="http://www.w3.org/2000/svg"
 width="231.000000pt" height="232.000000pt" viewBox="0 0 231.000000 232.000000"
 preserveAspectRatio="xMidYMid meet">

<g transform="translate(0.000000,232.000000) scale(0.100000,-0.100000)"
fill="#000000" stroke="none">
<path d="M0 1160 l0 -1160 1155 0 1155 0 0 1160 0 1160 -1155 0 -1155 0 0
-1160z m1566 1093 c0 -16 3 -62 6 -103 5 -60 3 -78 -9 -92 -15 -17 -13 -18 25
-18 l42 0 0 -54 c0 -59 14 -79 34 -50 21 28 38 8 31 -37 -7 -38 -6 -39 22 -39
40 0 45 -7 27 -41 -8 -17 -13 -50 -12 -84 2 -48 5 -54 21 -49 15 5 17 2 10
-23 -4 -15 -7 -48 -6 -72 2 -39 0 -43 -18 -38 -12 3 -22 0 -26 -9 -4 -10 -10
-11 -24 -3 -14 7 -19 21 -19 54 0 40 3 45 23 45 18 1 19 2 6 10 -17 10 -159 1
-159 -10 0 -4 -21 -4 -47 0 -25 4 -54 5 -64 3 -15 -4 -18 6 -24 80 -4 46 -4
94 -1 105 7 21 5 21 -116 15 -68 -3 -130 -9 -138 -13 -8 -4 -46 -8 -85 -9 -38
-1 -72 -6 -75 -10 -7 -10 -95 -14 -142 -6 -37 7 -51 28 -25 38 6 3 2 6 -10 6
-13 1 -30 12 -39 26 -9 14 -21 22 -26 19 -6 -4 -8 1 -4 14 5 16 1 21 -21 27
-19 4 -31 2 -38 -8 -12 -17 -29 -3 -38 29 -4 17 -6 17 -12 -4 -7 -21 -8 -21
-21 -5 -7 10 -14 32 -14 48 -1 49 -11 75 -31 75 -10 0 -21 5 -24 10 -3 6 -15
10 -26 10 -22 0 -24 11 -7 28 9 9 5 12 -20 12 -18 0 -32 -4 -32 -10 0 -5 -7
-7 -16 -3 -15 6 -15 7 1 19 17 12 16 14 -11 24 -66 24 -84 33 -84 41 0 5 8 9
17 9 9 0 14 3 10 6 -3 3 -19 3 -35 -1 -24 -5 -29 -10 -24 -28 5 -19 4 -19 -10
-6 -11 9 -13 18 -7 25 5 7 8 17 7 24 -2 7 3 15 11 18 9 3 11 0 6 -9 -5 -7 8
-3 28 10 20 12 37 19 37 14 0 -12 58 -4 66 8 3 5 248 9 557 9 l552 0 1 -27z
m465 7 c16 0 29 4 29 9 0 7 115 8 130 1 3 -1 8 -2 13 -1 4 0 7 -3 7 -8 0 -4
11 -6 25 -4 32 7 37 -14 33 -137 -3 -87 -4 -91 -12 -50 -8 40 -10 42 -19 22
-8 -17 -18 -22 -49 -22 -23 0 -38 -5 -38 -12 -1 -9 -5 -8 -13 2 -7 9 -27 16
-49 15 -28 0 -38 5 -42 18 -2 10 -14 21 -26 24 -12 3 -19 11 -16 18 6 18 -14
35 -41 35 -16 0 -23 6 -23 20 0 11 5 20 10 20 6 0 10 11 10 25 0 16 6 25 15
25 8 0 15 6 16 13 0 10 2 10 6 0 2 -7 18 -13 34 -13z m-1759 -20 c-10 -12 -18
-16 -21 -9 -2 6 3 15 10 20 24 15 29 10 11 -11z m1678 6 c0 -16 -14 -36 -25
-36 -11 0 -13 14 -6 38 2 4 31 2 31 -2z m-1774 -73 c-11 -11 -19 6 -11 24 8
17 8 17 12 0 3 -10 2 -21 -1 -24z m1784 -49 c0 -8 -4 -14 -10 -14 -5 0 -10 2
-10 4 0 2 -3 12 -6 20 -5 12 -2 15 10 10 9 -3 16 -12 16 -20z m-1357 -271 c-7
-3 -13 -11 -13 -19 0 -9 4 -13 9 -10 4 3 16 -3 26 -14 18 -19 17 -20 -8 -20
-19 0 -25 -4 -21 -15 5 -13 8 -13 27 0 12 8 30 15 40 15 9 0 20 7 23 15 4 10
13 13 25 10 12 -4 19 -2 19 7 0 9 2 10 8 2 4 -7 16 -14 27 -17 11 -2 -1 -5
-27 -6 l-46 -1 -7 -60 c-6 -54 -17 -75 -27 -51 -6 17 -46 -8 -59 -38 -14 -30
-16 -31 -81 -31 -38 0 -68 3 -68 8 0 4 18 6 40 4 l40 -4 0 46 c0 39 3 46 20
46 11 0 20 5 20 10 0 6 -9 10 -20 10 -11 0 -20 7 -20 15 0 8 9 15 19 15 26 0
37 18 17 26 -9 4 -16 18 -16 34 0 24 5 29 28 32 29 4 45 -2 25 -9z m117 -10
c0 -9 -7 -10 -26 -3 -14 6 -29 8 -34 5 -5 -3 -12 -1 -15 5 -4 7 8 10 34 8 24
-2 41 -8 41 -15z m410 -278 l0 -85 71 0 c92 0 137 -15 172 -56 l29 -34 -59 0
c-32 0 -63 -4 -70 -8 -6 -4 -13 -29 -15 -55 -2 -26 -7 -47 -13 -47 -5 0 -8 20
-6 44 l2 44 -47 4 c-28 2 -48 -1 -51 -8 -2 -6 -3 -46 -1 -90 l3 -79 61 -3 c58
-3 61 -2 60 20 -1 20 4 23 39 24 22 1 74 3 115 5 l75 4 0 -35 0 -35 -92 3 -93
4 0 -35 c0 -20 7 -43 17 -52 15 -16 10 -17 -73 -14 -97 3 -114 -2 -114 -33 0
-15 -4 -18 -16 -14 -14 5 -15 4 -4 -9 10 -12 10 -15 -4 -15 -10 0 -14 -4 -11
-10 3 -5 48 -10 98 -10 51 0 108 -5 127 -10 23 -7 36 -7 38 0 2 5 24 10 49 10
l46 0 -7 -52 c-3 -29 -6 -70 -6 -90 l0 -38 -130 0 c-122 0 -130 1 -130 19 0
18 -6 19 -94 14 -88 -5 -95 -4 -105 15 -8 16 -23 22 -59 24 -39 2 -48 7 -50
23 -2 12 -18 29 -37 39 -19 11 -32 23 -29 28 13 20 15 70 3 84 -10 12 -5 14
28 14 l39 0 -4 64 c-5 74 1 78 94 69 l55 -6 -3 84 -3 84 -75 8 c-41 5 -75 9
-76 10 -2 1 -4 31 -5 67 -3 62 -1 65 22 70 20 4 24 12 26 44 2 22 7 44 12 49
5 5 7 16 4 23 -4 11 14 14 96 14 l101 0 0 -85z m-573 12 c0 -8 -6 -14 -14 -14
-14 0 -17 10 -6 20 10 11 20 8 20 -6z m1203 -57 c0 -5 -4 -10 -10 -10 -5 0
-10 5 -10 10 0 6 5 10 10 10 6 0 10 -4 10 -10z m-8 -37 c4 -20 -13 -73 -23
-73 -8 0 -19 37 -19 68 0 27 37 31 42 5z m-1038 -34 c9 -47 7 -59 -9 -59 -23
0 -22 -300 1 -336 15 -22 15 -28 3 -51 -10 -19 -14 -69 -14 -191 0 -149 2
-165 19 -178 11 -7 22 -12 26 -9 10 6 6 -149 -5 -157 -5 -4 -11 -92 -13 -212
l-4 -206 -234 0 -234 0 -2 75 c-1 41 -2 87 -2 102 -1 21 5 28 23 33 24 5 25 8
25 108 1 95 3 103 24 118 22 15 23 21 20 115 l-3 99 39 0 39 0 -5 100 -5 100
34 6 c21 4 33 12 34 23 0 9 1 45 3 81 1 36 3 86 4 113 l2 47 85 0 85 0 0 41 0
42 -65 -7 -64 -6 6 56 c4 41 1 59 -8 65 -10 6 -8 9 9 9 12 0 25 7 28 15 7 18
-16 43 -35 37 -12 -4 -12 -3 0 10 12 14 18 14 48 -1 23 -11 29 -17 17 -19 -25
-5 -19 -22 9 -22 17 0 24 5 23 18 -1 9 0 25 0 36 2 15 4 16 17 6 13 -11 19
-10 33 8 24 30 38 27 46 -9z m1066 -68 c5 -18 5 -31 0 -31 -5 0 -7 -6 -4 -13
3 -8 -4 -25 -15 -38 -15 -18 -22 -21 -31 -12 -9 8 -7 14 9 22 13 7 21 22 21
36 0 22 -4 25 -35 25 -34 0 -35 -1 -35 -41 0 -39 -1 -40 -32 -37 -29 3 -33 7
-40 43 -13 60 -7 65 66 65 36 0 68 5 71 11 9 14 14 8 25 -30z m40 -47 c0 -8
-7 -14 -15 -14 -17 0 -18 2 -9 24 7 18 24 12 24 -10z m-56 -80 c3 -9 6 -29 6
-45 0 -26 4 -29 30 -29 17 0 30 5 30 11 0 5 5 7 10 4 6 -4 10 5 10 20 0 35 48
55 67 29 7 -10 13 -30 13 -45 0 -15 6 -29 13 -32 8 -3 9 -8 1 -16 -8 -8 -33
-9 -95 -2 -46 5 -85 8 -87 7 -1 -2 -4 -85 -5 -185 -1 -129 1 -181 9 -181 7 0
14 10 17 22 4 12 9 19 13 15 12 -12 32 13 27 33 -3 11 0 20 6 20 6 0 11 15 12
33 1 46 12 72 29 72 10 0 18 17 25 57 11 63 23 82 48 72 19 -7 23 -39 7 -49
-12 -7 -4 -25 11 -25 5 0 9 8 9 18 0 14 2 15 10 2 13 -20 13 -97 0 -105 -8 -5
-7 -11 1 -21 15 -18 39 -18 39 1 0 8 7 15 15 15 10 0 15 10 15 33 0 52 11 77
40 92 29 15 40 11 40 -14 0 -10 -3 -12 -8 -5 -4 6 -18 7 -32 4 -23 -7 -23 -8
12 -15 41 -8 69 2 47 16 -12 7 -11 9 1 10 37 3 76 -4 82 -14 5 -8 12 -6 22 8
14 18 15 -2 16 -201 l0 -221 -22 3 c-244 39 -353 44 -391 20 -21 -15 -26 -27
-32 -91 -4 -41 -3 -80 1 -87 4 -6 7 -29 5 -50 -1 -21 3 -48 10 -59 10 -20 9
-21 -7 -15 -44 17 -124 18 -198 2 -41 -10 -78 -21 -81 -27 -4 -5 -14 -9 -23
-9 -12 0 -13 3 -4 12 16 16 15 28 -3 28 -8 0 -15 -7 -15 -15 0 -11 -11 -15
-37 -15 -20 0 -56 -9 -79 -20 -52 -26 -197 -174 -192 -198 2 -12 25 -22 81
-36 42 -10 77 -22 77 -27 0 -5 -99 -9 -227 -9 -206 1 -224 2 -189 15 21 7 43
18 49 24 6 6 26 11 44 11 l32 0 -6 113 -6 114 24 6 c13 4 45 7 72 7 39 0 47 3
47 19 0 26 23 43 62 44 31 2 33 0 36 -35 4 -42 10 -45 52 -23 22 11 33 29 47
72 l18 58 50 1 c54 2 119 35 130 65 3 9 23 29 45 43 23 15 40 34 40 45 0 10 7
22 16 25 28 11 4 26 -41 26 l-45 0 6 48 c3 26 7 55 9 65 2 12 -4 17 -18 18
-22 2 -22 2 -1 6 19 4 22 13 27 102 3 53 3 122 0 153 -5 52 -4 55 18 61 13 4
36 7 51 7 15 0 30 5 33 10 4 6 -13 10 -43 10 -48 0 -50 1 -54 31 -3 17 -3 42
0 55 4 22 9 24 62 24 44 0 59 -4 64 -16z m-277 -123 c3 -22 -10 -40 -29 -41
-5 0 -8 16 -8 36 0 28 4 35 17 32 9 -2 18 -14 20 -27z m-704 -68 c-7 -2 -19
-2 -25 0 -7 3 -2 5 12 5 14 0 19 -2 13 -5z m275 -275 l-3 -33 -107 -3 -108 -3
0 30 0 30 88 4 c48 1 97 4 110 5 21 2 23 -2 20 -30z m195 -80 c12 -9 19 -34
24 -80 l6 -68 -64 0 -64 0 3 -42 c1 -24 -1 -49 -6 -55 -5 -8 -42 -16 -88 -19
-43 -4 -85 -11 -92 -17 -9 -7 -18 -5 -30 7 -13 11 -37 16 -78 16 -98 0 -105 5
-102 58 l3 46 120 1 119 0 7 33 6 32 -79 0 -79 0 3 33 3 32 78 -4 c49 -2 92
-10 117 -22 41 -20 99 -27 70 -9 -13 8 -12 10 3 10 12 0 17 8 17 30 0 29 2 30
43 30 24 0 51 -6 60 -12z m803 -383 c-8 -21 -36 -19 -36 3 0 14 2 15 10 2 8
-12 11 -11 17 10 3 13 8 19 11 12 2 -7 1 -19 -2 -27z"/>
<path d="M1430 2250 c0 -5 5 -10 10 -10 6 0 10 5 10 10 0 6 -4 10 -10 10 -5 0
-10 -4 -10 -10z"/>
<path d="M776 2034 c-14 -14 -14 -17 0 -40 20 -29 34 -31 41 -5 3 13 17 21 41
26 l37 7 -34 14 c-43 18 -66 18 -85 -2z"/>
<path d="M1420 2040 c-11 -8 -7 -9 15 -4 37 8 45 14 19 14 -10 0 -26 -5 -34
-10z"/>
<path d="M1630 1838 c0 -4 18 -8 39 -8 22 0 46 -3 55 -6 10 -4 16 -1 16 7 0
10 -16 14 -55 15 -30 0 -55 -3 -55 -8z"/>
<path d="M590 1730 c0 -5 7 -10 16 -10 8 0 12 5 9 10 -3 6 -10 10 -16 10 -5 0
-9 -4 -9 -10z"/>
<path d="M2025 862 c-3 -8 -5 -29 -5 -47 0 -31 3 -34 41 -40 22 -4 42 -5 43
-3 2 1 6 24 8 50 l5 46 -43 4 c-30 2 -45 -1 -49 -10z m78 -9 c-7 -2 -21 -2
-30 0 -10 3 -4 5 12 5 17 0 24 -2 18 -5z"/>
<path d="M1912 833 c-2 -41 -4 -43 -33 -43 -17 0 -28 -4 -24 -10 9 -15 55 -12
61 4 3 8 4 31 1 52 l-4 39 -1 -42z"/>
<path d="M1847 846 c-7 -17 1 -26 24 -26 14 0 29 18 29 36 0 11 -49 2 -53 -10z"/>
<path d="M1520 420 c0 -33 7 -37 35 -16 23 16 14 46 -15 46 -16 0 -20 -7 -20
-30z"/>
</g>
</svg>
