<?xml version="1.0" standalone="no"?>
<!DOCTYPE svg PUBLIC "-//W3C//DTD SVG 20010904//EN"
 "http://www.w3.org/TR/2001/REC-SVG-20010904/DTD/svg10.dtd">
<svg version="1.0" xmlns="http://www.w3.org/2000/svg"
 width="233.000000pt" height="234.000000pt" viewBox="0 0 233.000000 234.000000"
 preserveAspectRatio="xMidYMid meet">

<g transform="translate(0.000000,234.000000) scale(0.100000,-0.100000)"
fill="#000000" stroke="none">
<path d="M0 1170 l0 -1170 1165 0 1165 0 0 1170 0 1170 -1165 0 -1165 0 0
-1170z m2264 1104 c14 -14 16 -70 16 -465 l0 -449 -30 0 -30 0 -2 238 c-1 130
-2 253 -2 272 l-1 35 -130 5 c-71 3 -136 9 -142 13 -7 5 -13 17 -13 27 0 10
-6 22 -12 27 -7 4 -74 10 -148 14 -193 10 -186 7 -193 85 -2 36 -8 68 -12 72
-4 4 -93 7 -198 7 l-192 0 0 -68 c0 -66 -1 -67 -30 -77 -16 -5 -63 -12 -103
-16 -39 -4 -72 -10 -72 -14 0 -4 -8 -7 -17 -6 -11 0 -17 -6 -17 -16 2 -20 -11
-24 -21 -8 -13 22 -25 -3 -25 -53 1 -43 5 -57 30 -84 16 -18 34 -33 39 -33 10
0 26 -38 19 -45 -1 -2 -30 -5 -63 -8 -44 -4 -59 -9 -57 -18 7 -26 25 -39 63
-45 l39 -7 0 -49 0 -49 -62 2 -63 3 -3 -39 c-3 -37 -4 -38 -16 -14 -7 13 -9
26 -5 29 4 3 9 39 11 80 2 41 7 80 11 87 4 6 4 14 -1 17 -5 3 -7 19 -4 36 4
27 2 30 -22 30 -15 0 -29 -7 -32 -15 -5 -11 -11 -12 -24 -5 -14 7 -23 6 -34
-6 -9 -8 -16 -20 -16 -25 0 -12 -37 -12 -61 1 -28 15 -24 33 6 26 27 -7 28 -6
19 18 -3 9 -14 16 -24 16 -25 0 -60 51 -60 87 l0 29 -65 0 -65 -1 -1 -40 c-1
-22 -2 -139 -4 -260 -4 -239 -10 -305 -28 -305 -7 0 -23 -8 -37 -17 -31 -22
-45 -24 -168 -26 -76 -2 -106 1 -111 11 -4 7 -17 14 -29 15 l-22 1 0 488 c0
453 1 488 18 497 11 7 383 10 1099 11 970 0 1083 -2 1097 -16z m-1727 -419 c8
-23 -1 -27 -41 -20 -38 8 -47 21 -18 28 35 9 53 7 59 -8z m248 -116 c10 -15
-1 -23 -20 -15 -9 3 -13 10 -10 16 8 13 22 13 30 -1z m497 -68 c-5 -33 12 -41
98 -41 99 0 120 -7 120 -35 0 -25 17 -35 61 -35 l29 0 0 -134 0 -133 -34 -6
c-19 -3 -52 -3 -74 0 -36 5 -41 3 -44 -18 -3 -21 -7 -23 -63 -20 -33 1 -63 4
-66 7 -4 2 -4 34 -1 70 6 75 5 76 -75 100 l-52 15 -3 57 -3 57 -36 3 c-31 3
-38 7 -42 30 -7 35 -2 42 31 42 15 0 44 3 65 6 36 7 37 7 17 24 -34 29 -25 41
28 38 43 -3 47 -5 44 -27z m-325 -297 c-4 -37 -8 -68 -9 -69 -2 -1 -29 -5 -60
-9 l-58 -6 0 75 0 75 66 0 67 0 -6 -66z m230 -106 c2 -35 -6 -40 -56 -32 -37
6 -41 9 -41 36 0 28 1 29 47 26 44 -3 48 -5 50 -30z m-187 -28 c-19 -13 -30
-13 -30 0 0 6 10 10 23 10 18 0 19 -2 7 -10z m-40 -90 l0 -39 76 2 c41 1 78
-1 80 -5 3 -5 1 -8 -5 -8 -5 0 -11 -24 -13 -52 l-3 -53 -120 -5 -120 -5 -10
-55 c-7 -43 -10 -49 -12 -25 -9 78 -4 75 -108 75 l-94 0 -6 44 c-4 25 -4 50 0
56 5 8 39 11 104 9 l96 -3 3 52 3 52 65 0 64 0 0 -40z m470 -70 l0 -50 -105 0
-105 0 0 50 0 50 105 0 105 0 0 -50z m-1012 -42 l-3 -43 -77 -3 -78 -3 0 46 0
45 81 0 80 0 -3 -42z m769 -261 c-2 -7 -12 -11 -21 -9 -9 2 -16 -1 -15 -5 6
-34 -29 -48 -89 -37 -31 6 -33 8 -17 15 16 6 16 8 4 8 -17 1 -33 27 -25 39 8
13 167 1 163 -11z m-246 -145 c0 -32 1 -73 2 -92 l2 -34 -45 0 c-100 2 -91 -7
-84 87 3 45 7 87 9 92 1 6 27 9 59 7 l57 -4 0 -56z m-311 8 l0 -40 -110 0
-110 0 0 40 0 40 110 0 110 0 0 -40z m890 2 c0 -4 -5 -13 -12 -20 -9 -9 -9
-12 1 -12 9 0 12 -14 9 -47 -3 -46 -4 -47 -42 -55 -22 -5 -43 -5 -48 0 -4 4
-5 38 -1 75 l6 67 43 0 c24 0 44 -4 44 -8z m-892 -174 l3 -48 -100 0 c-55 0
-102 3 -104 8 -2 4 -2 26 1 50 l4 43 97 -3 96 -3 3 -47z m1072 -14 l0 -35
-147 -1 c-258 -3 -375 1 -389 13 -8 6 -14 20 -14 30 0 22 20 23 338 26 l212 2
0 -35z m500 28 c0 -4 -5 -13 -12 -20 -9 -9 -9 -12 0 -12 14 0 17 -106 3 -114
-4 -3 -38 -3 -75 1 l-67 6 3 51 c3 50 3 51 38 54 54 4 81 12 75 21 -3 5 1 12
7 14 20 8 28 8 28 -1z m-1070 -32 l0 -30 -70 0 -70 0 0 30 0 30 70 0 70 0 0
-30z m-192 5 c6 -3 12 -16 12 -30 0 -25 -1 -26 -62 -23 -51 2 -63 6 -66 21 -8
39 5 49 55 42 27 -4 54 -8 61 -10z m1026 -41 c21 -8 22 -72 1 -80 -34 -13
-131 1 -152 22 -7 7 -13 22 -13 33 0 15 8 21 33 24 56 7 115 7 131 1z m-1544
-54 c0 -25 -4 -30 -25 -30 -14 0 -29 8 -35 19 -14 28 -13 29 18 34 15 2 30 5
35 6 4 0 7 -12 7 -29z m1693 -250 c28 0 21 -39 -9 -46 -47 -12 -256 2 -288 19
-49 26 8 37 169 31 61 -2 118 -4 128 -4z"/>
<path d="M865 1810 c3 -5 8 -10 11 -10 2 0 4 5 4 10 0 6 -5 10 -11 10 -5 0 -7
-4 -4 -10z"/>
<path d="M755 1790 c3 -5 8 -10 11 -10 2 0 4 5 4 10 0 6 -5 10 -11 10 -5 0 -7
-4 -4 -10z"/>
<path d="M878 1573 c7 -3 16 -2 19 1 4 3 -2 6 -13 5 -11 0 -14 -3 -6 -6z"/>
<path d="M1292 1498 l3 -43 73 -3 72 -3 0 30 c0 16 3 36 6 45 5 14 -5 16 -76
16 l-81 0 3 -42z"/>
</g>
</svg>
