<?xml version="1.0" standalone="no"?>
<!DOCTYPE svg PUBLIC "-//W3C//DTD SVG 20010904//EN"
 "http://www.w3.org/TR/2001/REC-SVG-20010904/DTD/svg10.dtd">
<svg version="1.0" xmlns="http://www.w3.org/2000/svg"
 width="234.000000pt" height="235.000000pt" viewBox="0 0 234.000000 235.000000"
 preserveAspectRatio="xMidYMid meet">

<g transform="translate(0.000000,235.000000) scale(0.100000,-0.100000)"
fill="#000000" stroke="none">
<path d="M0 1175 l0 -1175 1170 0 1170 0 0 1175 0 1175 -1170 0 -1170 0 0
-1175z m1004 528 c8 -53 7 -186 -2 -200 -9 -14 -34 -12 -55 5 -12 10 -16 10
-20 0 -4 -8 -6 -7 -6 5 -1 11 6 17 20 17 11 0 17 4 14 10 -4 6 -15 8 -25 5
-17 -5 -18 1 -17 95 l1 100 42 0 c40 0 42 -1 48 -37z m-329 -32 c0 -42 -10
-46 -12 -5 -2 19 0 34 5 34 4 0 7 -13 7 -29z m898 -3 c35 -1 47 -3 27 -5 -77
-8 -77 -8 -85 -73 -5 -43 -11 -60 -22 -60 -8 0 -11 5 -8 10 4 6 -11 10 -37 10
-42 0 -105 30 -91 43 3 4 1 7 -5 7 -7 0 -12 9 -12 20 0 11 -4 20 -10 20 -5 0
-10 6 -10 14 0 10 23 16 90 21 56 4 90 12 91 19 1 6 3 3 6 -6 4 -15 17 -18 66
-20z m-685 -83 c1 -34 0 -35 -33 -35 -42 0 -44 10 -7 32 l27 17 -27 1 c-16 0
-28 5 -28 10 0 6 15 10 33 10 32 0 34 -2 35 -35z m-78 15 c0 -5 -7 -7 -15 -4
-8 4 -15 8 -15 10 0 2 7 4 15 4 8 0 15 -4 15 -10z m-213 -107 c-3 -10 -5 -2
-5 17 0 19 2 27 5 18 2 -10 2 -26 0 -35z m696 27 c-3 -11 -9 -17 -14 -14 -14
8 -10 34 5 34 9 0 12 -7 9 -20z m101 -60 c-7 -25 -7 -24 -16 9 -5 18 -6 41 -3
50 11 25 28 -28 19 -59z m-500 20 c2 -14 8 -37 12 -52 5 -22 3 -28 -10 -28
-12 0 -16 10 -16 46 0 38 -3 45 -17 40 -10 -2 -33 -7 -50 -11 -29 -6 -33 -4
-33 15 0 19 5 21 54 18 49 -3 55 -5 60 -28z m216 -21 c0 -5 -9 -9 -20 -9 -11
0 -20 4 -20 8 0 4 9 8 20 9 11 1 20 -2 20 -8z m486 3 c16 -11 23 -47 12 -66
-12 -22 -93 -23 -84 -1 4 10 -1 15 -17 16 -21 0 -21 1 -2 9 11 5 14 9 8 9 -7
1 -13 7 -13 15 0 10 13 16 38 19 20 2 39 4 42 5 3 1 10 -2 16 -6z m-999 -49
c-3 -10 -5 -4 -5 12 0 17 2 24 5 18 2 -7 2 -21 0 -30z m255 -43 c2 -5 1 -35 0
-65 l-4 -55 -39 0 -39 0 0 58 c0 32 3 62 7 65 10 11 71 8 75 -3z m135 -22 c-3
-8 -6 -5 -6 6 -1 11 2 17 5 13 3 -3 4 -12 1 -19z m170 -20 c-3 -7 -5 -2 -5 12
0 14 2 19 5 13 2 -7 2 -19 0 -25z m412 16 c42 -9 39 -21 -6 -26 -44 -6 -59 -2
-67 18 -6 16 20 18 73 8z m-387 -44 c4 0 8 -10 10 -22 2 -15 11 -24 26 -26 16
-3 22 -10 22 -28 0 -22 4 -24 50 -24 l50 0 0 34 0 33 61 7 c104 10 109 10 109
-21 0 -44 15 -61 40 -45 28 17 37 15 43 -10 8 -29 -11 -52 -29 -37 -11 9 -14
8 -15 -2 0 -8 -4 -5 -9 7 -12 30 -82 38 -126 15 -18 -10 -30 -22 -26 -26 4 -5
2 -6 -3 -2 -6 3 -17 2 -25 -3 -11 -7 -20 -3 -31 11 -10 14 -30 22 -62 25 l-47
4 0 -48 c0 -27 -3 -51 -6 -55 -4 -3 -20 1 -36 9 -29 15 -84 10 -58 -6 8 -5 3
-9 -14 -12 -24 -5 -25 -2 -28 41 -3 44 -4 46 -38 51 -30 5 -32 6 -15 14 11 5
28 8 39 7 11 -2 17 2 14 11 -3 8 -20 13 -44 13 l-39 0 -3 -55 -2 -56 34 1 c24
1 33 -2 29 -12 -6 -16 -30 -17 -35 -2 -3 9 -10 9 -26 0 -18 -9 -22 -21 -23
-59 -1 -27 -4 -36 -6 -22 -8 41 -16 45 -100 49 -32 1 -33 2 -33 46 0 38 -3 45
-20 45 -11 0 -20 5 -20 10 0 6 11 10 24 10 15 0 26 7 29 20 4 14 11 18 24 14
15 -5 15 -4 3 5 -28 19 4 30 100 33 l95 3 0 33 0 34 55 -6 c30 -3 58 -5 62 -6z
m128 -50 c0 -5 -10 -10 -22 -9 -22 0 -22 1 -3 9 11 5 21 9 23 9 1 1 2 -3 2 -9z
m387 -36 c-3 -3 -12 -4 -19 -1 -8 3 -5 6 6 6 11 1 17 -2 13 -5z m-937 -120 c0
-49 -4 -84 -10 -84 -6 0 -10 37 -10 91 0 57 4 88 10 84 6 -3 10 -44 10 -91z
m1027 31 c-4 -9 6 -11 39 -7 29 3 44 1 44 -7 0 -16 32 -51 47 -51 15 0 36 -37
28 -50 -3 -6 -17 -10 -31 -10 -32 0 -31 -20 1 -21 48 -3 50 -4 49 -37 -1 -21
2 -30 10 -25 7 3 6 1 -1 -8 -7 -7 -13 -23 -13 -35 0 -13 -4 -25 -8 -28 -5 -3
-7 -19 -4 -36 2 -16 0 -30 -5 -30 -6 0 -8 -22 -5 -51 3 -37 2 -50 -6 -45 -8 5
-10 1 -6 -9 4 -9 13 -14 20 -11 8 3 14 1 14 -4 0 -5 10 -10 22 -12 12 -2 23
-9 26 -17 3 -8 0 -11 -6 -7 -15 9 -32 -25 -32 -62 0 -28 2 -30 50 -34 28 -3
53 -7 56 -10 6 -7 6 -16 0 -133 -2 -49 -4 -143 -5 -207 l-1 -118 -120 0 -119
0 -3 78 -3 77 -72 3 -73 3 0 45 0 45 -117 -3 -118 -3 3 -36 c3 -33 1 -37 -25
-42 l-28 -6 3 -80 4 -81 -336 0 -336 0 10 26 c14 37 13 87 -2 81 -7 -2 -13
-16 -13 -30 1 -34 -8 -34 -23 -2 -8 17 -12 93 -12 216 l0 190 63 -2 c124 -3
116 -7 120 64 2 46 5 56 11 40 5 -13 12 -23 17 -23 5 0 7 -11 3 -25 -7 -29 2
-31 34 -9 12 8 26 13 31 9 6 -3 14 1 18 9 5 10 16 13 31 9 25 -6 30 -23 7 -23
-9 0 -15 -9 -15 -25 0 -22 4 -25 40 -25 38 0 54 13 28 23 -10 4 -9 8 2 16 10
7 16 7 18 0 5 -14 32 10 32 28 0 32 25 4 28 -31 l3 -37 77 3 77 3 5 35 c5 35
5 35 56 35 34 0 56 5 68 17 14 15 35 18 107 18 l89 0 0 50 c0 49 -1 50 -30 50
-31 0 -31 0 -27 50 2 27 1 49 -2 48 -3 0 -27 0 -53 1 -66 1 -61 21 6 21 l53 0
7 88 c10 120 14 134 40 131 11 -2 30 0 41 4 11 3 37 7 58 9 36 2 41 8 38 37
-2 7 3 10 9 6 6 -4 9 -13 7 -20z m-373 -30 c3 -8 1 -15 -4 -15 -6 0 -10 7 -10
15 0 8 2 15 4 15 2 0 6 -7 10 -15z m-881 -116 c-5 -5 -18 -7 -28 -3 -16 6 -15
8 6 20 25 13 40 1 22 -17z m486 -79 c-1 -8 0 -18 1 -22 1 -5 3 -11 4 -15 9
-39 18 -63 24 -62 19 3 45 -2 39 -7 -3 -4 0 -13 8 -20 7 -8 15 -19 18 -26 3
-10 9 -8 24 5 22 19 53 14 53 -9 0 -11 -19 -14 -86 -14 -74 0 -85 2 -80 16 4
11 1 14 -12 10 -14 -5 -24 3 -38 29 -10 20 -29 38 -42 42 -30 7 -44 34 -28 55
7 10 16 15 19 11 4 -3 7 1 7 10 0 13 9 16 45 14 33 -1 45 -6 44 -17z m61 -10
c0 -13 -5 -18 -15 -14 -11 5 -12 9 -2 20 16 18 17 17 17 -6z m287 -16 c-3 -3
-12 -4 -19 -1 -8 3 -5 6 6 6 11 1 17 -2 13 -5z m-204 -81 c-7 -2 -19 -2 -25 0
-7 3 -2 5 12 5 14 0 19 -2 13 -5z m-293 -74 c0 -14 5 -19 18 -17 9 2 16 10 15
16 -2 7 6 12 17 12 19 0 19 -1 2 -21 -25 -30 -48 -40 -77 -33 -17 4 -25 13
-25 28 0 27 8 36 32 36 12 0 18 -7 18 -21z m-613 -131 c-2 -13 -4 -5 -4 17 -1
22 1 32 4 23 2 -10 2 -28 0 -40z m783 -24 c0 -8 -5 -12 -10 -9 -6 4 -8 11 -5
16 9 14 15 11 15 -7z m-580 -34 c0 -5 -4 -10 -9 -10 -6 0 -13 5 -16 10 -3 6 1
10 9 10 9 0 16 -4 16 -10z m-318 -353 c3 -104 1 -117 -14 -117 -13 0 -16 7
-13 32 11 79 12 163 2 199 -7 30 -6 43 4 56 16 19 17 15 21 -170z m-75 -59
c-2 -13 -4 -5 -4 17 -1 22 1 32 4 23 2 -10 2 -28 0 -40z m648 -48 c3 -5 1 -10
-4 -10 -6 0 -11 5 -11 10 0 6 2 10 4 10 3 0 8 -4 11 -10z"/>
<path d="M751 254 c0 -11 3 -14 6 -6 3 7 2 16 -1 19 -3 4 -6 -2 -5 -13z"/>
</g>
</svg>
