<?xml version="1.0" standalone="no"?>
<!DOCTYPE svg PUBLIC "-//W3C//DTD SVG 20010904//EN"
 "http://www.w3.org/TR/2001/REC-SVG-20010904/DTD/svg10.dtd">
<svg version="1.0" xmlns="http://www.w3.org/2000/svg"
 width="232.000000pt" height="236.000000pt" viewBox="0 0 232.000000 236.000000"
 preserveAspectRatio="xMidYMid meet">

<g transform="translate(0.000000,236.000000) scale(0.100000,-0.100000)"
fill="#000000" stroke="none">
<path d="M0 1180 l0 -1180 1160 0 1160 0 0 1180 0 1180 -1160 0 -1160 0 0
-1180z m2261 1110 c19 -10 19 -33 19 -1103 0 -837 -3 -1096 -12 -1105 -7 -7
-38 -12 -69 -12 l-57 0 -13 71 c-14 79 -33 99 -76 80 -37 -17 -45 -14 -38 17
4 21 0 33 -17 48 -35 32 -132 83 -227 119 -94 36 -119 65 -58 65 45 0 61 20
54 68 -28 185 -47 331 -47 359 0 32 1 33 40 33 44 0 90 17 90 34 0 6 -8 160
-17 341 -9 182 -16 347 -16 368 1 26 -3 37 -14 37 -21 0 -154 79 -180 107 -12
12 -24 23 -27 23 -3 0 -6 -28 -8 -62 -3 -62 -3 -63 -33 -63 -26 0 -30 4 -37
40 -5 23 -4 58 1 85 10 44 10 46 -27 79 -20 19 -65 60 -100 92 -60 56 -82 70
-82 50 0 -11 -146 -157 -195 -196 -22 -16 -68 -55 -103 -85 l-64 -55 7 -75 c4
-41 12 -79 19 -85 16 -12 1 -29 -62 -70 -40 -26 -69 -28 -44 -3 7 7 12 39 12
73 0 38 8 76 20 104 24 52 24 51 5 51 -12 0 -35 28 -35 44 0 3 15 12 33 19 43
18 214 149 307 235 68 63 74 71 60 87 -22 26 -127 105 -140 105 -16 0 -39 -20
-251 -213 l-177 -160 0 -206 c1 -113 -3 -239 -7 -278 l-7 -73 25 0 c19 0 31
11 51 45 27 46 63 78 78 69 4 -3 8 -20 8 -37 0 -18 9 -46 20 -64 l19 -32 -114
-83 c-62 -46 -137 -100 -167 -120 -29 -21 -62 -51 -72 -66 -11 -16 -32 -37
-47 -48 -37 -25 -40 -32 -46 -144 -2 -52 -11 -116 -19 -142 -9 -26 -14 -66
-12 -90 4 -56 24 -59 97 -15 76 45 91 70 102 163 7 67 12 81 36 101 37 31 103
77 131 92 22 11 22 11 22 -42 0 -48 -3 -55 -32 -77 l-31 -23 -24 29 c-21 27
-23 27 -23 8 0 -12 7 -38 15 -57 17 -41 34 -41 60 -1 10 15 57 45 118 74 113
54 197 126 213 181 7 25 21 38 67 62 31 17 59 28 61 26 1 -2 -1 -69 -5 -148
-6 -94 -5 -149 1 -156 6 -7 27 -15 48 -19 35 -5 37 -7 37 -46 1 -35 -2 -40
-22 -40 -13 0 -23 5 -23 10 0 6 -7 10 -15 10 -8 0 -15 -4 -15 -10 0 -5 -7 -10
-15 -10 -8 0 -15 5 -15 10 0 20 -47 9 -120 -29 -41 -21 -139 -71 -216 -110
-78 -39 -176 -93 -218 -121 -42 -27 -79 -50 -82 -50 -3 0 -19 9 -34 20 -28 20
-30 20 -72 3 -68 -28 -209 -115 -223 -137 -7 -12 -15 -48 -18 -80 -3 -32 -9
-62 -14 -66 -4 -4 -41 -11 -80 -14 l-73 -7 0 1088 c0 834 3 1092 12 1101 16
16 2169 18 2199 2z m-1051 -494 c9 -12 7 -18 -9 -32 -11 -10 -29 -18 -41 -19
-16 -1 -20 4 -20 32 0 30 3 33 29 33 16 0 34 -6 41 -14z m47 -72 c13 -20 10
-25 -47 -74 l-60 -52 0 39 c0 38 19 76 50 100 20 17 40 12 57 -13z m36 -61 c2
-5 -1 -62 -7 -127 l-11 -120 -47 -2 c-44 -3 -48 -1 -48 19 0 12 -4 28 -9 35
-18 29 37 168 77 192 21 11 39 13 45 3z m307 -228 c0 -8 -4 -15 -9 -15 -13 0
-22 16 -14 24 11 11 23 6 23 -9z m-205 -95 c3 -5 33 -24 66 -42 34 -17 68 -43
77 -56 13 -21 13 -25 0 -38 -14 -14 -24 -9 -97 46 -44 33 -81 62 -81 65 0 2
-3 10 -6 19 -4 11 0 16 14 16 12 0 23 -4 27 -10z m-248 -16 c-3 -3 -12 -4 -19
-1 -8 3 -5 6 6 6 11 1 17 -2 13 -5z m-191 -166 c8 -40 11 -43 42 -41 17 1 32
-2 32 -6 0 -4 -22 -22 -49 -39 -56 -34 -61 -31 -61 41 0 48 9 87 19 87 4 0 11
-19 17 -42z m519 -1 c-75 -42 -122 -59 -156 -55 -30 3 -20 8 71 40 124 43 139
45 85 15z m95 -82 c13 -16 7 -30 -13 -30 -14 -1 -27 15 -27 33 0 17 25 15 40
-3z m-683 -53 c-23 -25 -97 -66 -97 -53 0 14 79 71 98 71 13 0 13 -3 -1 -18z
m56 -111 c-14 -18 -29 91 -16 112 5 7 11 -15 14 -48 3 -33 4 -62 2 -64z m-233
5 c0 -7 -80 -56 -92 -56 -7 1 4 10 24 20 20 11 40 24 43 30 6 9 25 14 25 6z
m823 -48 c4 -49 2 -67 -7 -57 -10 10 -17 109 -8 109 5 0 12 -24 15 -52z m-98
-98 c4 -6 -9 -10 -32 -9 -34 1 -35 2 -13 9 35 11 38 11 45 0z m-55 -142 c33
-24 40 -41 13 -31 -23 8 -53 34 -53 45 0 13 8 10 40 -14z m-300 -242 c-7 -7
-10 26 -10 105 0 64 3 119 8 123 4 4 8 -43 10 -105 2 -68 -1 -116 -8 -123z
m552 108 l30 -16 -21 -20 c-23 -21 -51 -18 -51 6 0 8 -3 21 -6 30 -8 20 9 20
48 0z m-634 -111 c-3 -13 -33 -28 -109 -53 -15 -4 -43 -16 -63 -25 -20 -10
-39 -15 -43 -12 -3 4 2 22 11 41 15 31 20 35 46 29 25 -4 35 1 65 31 19 20 35
43 35 51 0 8 8 18 17 24 14 8 20 3 31 -31 7 -21 12 -46 10 -55z m-201 -5 c-3
-8 -6 -5 -6 6 -1 11 2 17 5 13 3 -3 4 -12 1 -19z m-308 -142 c-9 -8 -10 -7 -5
7 3 10 7 24 7 30 1 7 3 4 6 -7 3 -10 -1 -23 -8 -30z m-39 -119 c0 -33 -19 -47
-64 -47 -69 0 -74 14 -15 44 65 32 79 33 79 3z m164 2 c6 -5 -4 -5 -24 1 -18
5 -35 12 -39 16 -9 10 53 -6 63 -17z"/>
<path d="M1225 1489 c-16 -30 -16 -31 7 -27 17 2 24 11 26 31 4 36 -14 34 -33
-4z"/>
</g>
</svg>
