<?xml version="1.0" standalone="no"?>
<!DOCTYPE svg PUBLIC "-//W3C//DTD SVG 20010904//EN"
 "http://www.w3.org/TR/2001/REC-SVG-20010904/DTD/svg10.dtd">
<svg version="1.0" xmlns="http://www.w3.org/2000/svg"
 width="232.000000pt" height="231.000000pt" viewBox="0 0 232.000000 231.000000"
 preserveAspectRatio="xMidYMid meet">

<g transform="translate(0.000000,231.000000) scale(0.100000,-0.100000)"
fill="#000000" stroke="none">
<path d="M0 1155 l0 -1155 1160 0 1160 0 0 1155 0 1155 -1160 0 -1160 0 0
-1155z m570 1116 c41 0 91 0 110 0 70 1 205 2 220 1 8 -1 155 -3 325 -5 171
-3 447 -8 615 -13 168 -4 321 -8 342 -8 20 -1 34 -4 31 -8 -2 -5 -13 -8 -24
-8 -10 0 -19 -4 -19 -10 0 -5 9 -10 20 -10 11 0 20 -4 20 -10 0 -5 7 -10 15
-10 12 0 15 -16 17 -77 1 -98 2 -100 11 -109 4 -4 7 4 7 17 2 80 11 203 15
207 3 3 5 -477 5 -1066 0 -1050 0 -1072 -20 -1092 -18 -18 -33 -19 -210 -18
-175 1 -208 6 -179 24 8 4 8 9 0 17 -6 6 -11 19 -11 28 0 19 -25 49 -41 49 -5
0 -9 -7 -9 -15 0 -9 -10 -15 -26 -15 -19 0 -25 -4 -21 -15 4 -8 2 -17 -3 -20
-6 -4 -10 4 -10 17 0 40 -15 50 -84 55 l-66 6 0 53 0 54 -56 0 c-50 0 -55 2
-49 18 4 9 12 44 17 77 6 37 16 66 28 76 17 15 17 16 -14 27 -18 7 -53 12 -79
12 -44 0 -46 1 -51 33 -8 48 -14 794 -7 805 3 5 42 15 86 21 44 6 95 14 113
17 l32 6 2 -56 c1 -31 2 -64 2 -73 1 -13 -9 -19 -34 -23 l-35 -5 0 -350 0
-350 30 -3 c24 -2 34 -11 47 -40 10 -20 19 -50 20 -67 3 -28 6 -30 48 -33 25
-2 49 -7 55 -13 5 -5 35 -9 67 -9 48 0 58 3 59 18 1 9 1 77 1 150 l0 134 34
14 35 15 -3 61 c-3 55 0 64 23 90 19 19 30 48 39 93 7 36 16 68 21 71 5 3 9
12 9 20 0 10 -12 14 -40 14 l-40 0 0 60 c0 33 4 60 10 60 6 0 10 11 10 25 0
20 -6 27 -29 31 -28 6 -30 10 -36 69 -4 35 -4 86 0 114 l7 51 -56 0 -55 0 -3
53 -3 52 -55 0 c-52 0 -55 -1 -56 -25 -1 -44 -4 -50 -20 -50 -13 0 -15 14 -14
88 0 48 -1 137 -4 197 l-4 110 -106 3 c-58 1 -106 6 -106 10 0 4 -183 6 -407
5 l-408 -2 -6 -28 c-4 -15 -14 -41 -22 -58 -11 -19 -15 -45 -12 -78 5 -65 -1
-77 -40 -77 l-32 0 -7 -95 c-4 -52 -4 -99 -1 -105 3 -5 19 -10 35 -10 16 0 31
-4 34 -8 3 -5 6 -68 7 -141 l2 -132 49 6 c31 5 60 3 79 -5 28 -12 29 -14 13
-31 -10 -11 -15 -20 -13 -22 2 -2 18 -9 34 -17 17 -8 33 -16 38 -18 19 -9 4
39 -15 49 l-22 12 23 9 c21 7 23 13 17 46 -3 20 -6 62 -6 93 0 48 -3 57 -22
67 l-23 11 22 0 c19 1 22 8 25 56 4 71 2 75 -34 75 -32 0 -65 -24 -48 -35 12
-7 14 -244 2 -262 -5 -8 -22 -10 -49 -6 -25 3 -40 10 -36 16 3 5 8 57 10 114
2 58 8 114 14 124 5 11 6 25 2 32 -10 16 -4 233 8 264 6 16 17 23 34 23 18 0
31 9 43 29 10 18 28 32 45 35 39 8 526 7 555 0 13 -4 29 -20 36 -39 13 -31 27
-40 143 -90 34 -15 42 -23 38 -39 -2 -12 -7 -43 -10 -69 -8 -60 -27 -69 -140
-71 -44 -1 -90 -7 -102 -14 -61 -33 -62 -33 -77 -9 -7 12 -17 38 -20 57 -8 41
-56 93 -82 88 -10 -2 -21 -14 -24 -28 -6 -25 -6 -25 -129 -25 -130 -1 -141 -5
-141 -52 0 -23 2 -23 134 -23 153 0 150 2 137 -82 -5 -29 -7 -56 -5 -59 2 -3
27 -4 55 -1 48 4 52 3 45 -14 -5 -10 -9 -26 -10 -34 -2 -10 -18 -17 -47 -20
-44 -5 -44 -5 -50 -50 -4 -25 -4 -49 -1 -54 5 -8 76 -3 121 10 20 6 23 4 18
-10 -4 -10 -7 -44 -7 -76 l0 -58 -52 -40 c-29 -22 -85 -71 -125 -108 -96 -92
-124 -114 -148 -114 -11 0 -27 -4 -34 -9 -12 -8 -9 -11 12 -16 29 -8 30 -10
31 -125 0 -60 -34 -138 -80 -181 -28 -26 -122 -38 -136 -17 -15 24 -8 47 22
78 23 24 30 40 30 70 0 39 -1 40 -34 40 -19 0 -38 -4 -41 -10 -3 -5 -18 -10
-31 -10 -26 0 -26 0 -20 -73 4 -39 8 -96 9 -126 3 -46 6 -55 27 -63 28 -10 82
-16 171 -17 75 -1 82 -8 72 -80 -5 -34 -10 -41 -34 -46 -36 -8 -40 -15 -33
-53 4 -21 13 -32 28 -34 14 -2 22 -11 24 -30 l3 -27 -178 -3 c-227 -4 -236 -3
-229 28 4 16 2 24 -7 24 -7 0 -13 -10 -12 -22 0 -32 -19 -39 -23 -8 -11 104
-13 110 -37 110 -34 0 -55 -10 -55 -26 0 -18 -37 -18 -55 -1 -9 9 -10 19 -3
30 10 19 2 57 -13 57 -5 0 -9 -16 -9 -36 0 -23 -4 -33 -11 -28 -6 3 -9 19 -5
35 4 22 2 29 -9 29 -10 0 -16 -12 -17 -37 l-1 -38 -4 38 c-4 35 -7 38 -31 35
-23 -3 -27 -8 -28 -38 0 -27 -4 -35 -20 -37 -10 -2 -13 0 -7 3 19 8 16 71 -3
78 -9 3 -20 4 -25 0 -5 -3 -9 4 -9 15 0 31 -18 34 -23 4 -2 -16 -5 412 -6 949
-1 729 2 979 11 984 7 5 8 2 3 -7 -4 -8 7 0 26 18 32 30 39 32 98 30 36 -1 66
3 68 8 3 9 56 10 313 6z m1670 -51 c0 -5 -5 -10 -11 -10 -5 0 -7 5 -4 10 3 6
8 10 11 10 2 0 4 -4 4 -10z m-1673 -712 c-2 -13 -4 -3 -4 22 0 25 2 35 4 23 2
-13 2 -33 0 -45z m603 -27 c0 -13 -37 -24 -51 -15 -8 4 -7 9 2 15 19 12 49 11
49 0z m610 -831 c0 -22 -4 -40 -10 -40 -11 0 -13 39 -4 64 10 26 14 19 14 -24z
m-358 -214 c32 -7 46 -44 50 -136 3 -55 6 -66 23 -70 11 -3 20 -10 21 -15 0
-6 3 -17 7 -25 3 -8 8 -37 11 -64 4 -29 13 -54 24 -62 14 -11 -37 -13 -315
-14 l-333 0 0 85 0 85 71 0 70 0 -5 -34 c-6 -39 4 -51 38 -42 17 4 26 15 30
41 6 32 11 36 34 34 15 -1 34 -1 42 0 18 1 50 55 50 82 0 33 58 147 77 151 10
2 32 1 48 -3 17 -4 42 -10 57 -13z m-1365 -268 c-3 -8 -6 -5 -6 6 -1 11 2 17
5 13 3 -3 4 -12 1 -19z m328 -10 c6 -4 2 -8 -7 -8 -10 0 -18 7 -18 17 0 9 3
12 8 7 4 -5 12 -12 17 -16z m1255 -38 c0 -5 -8 -10 -17 -10 -15 0 -16 2 -3 10
19 12 20 12 20 0z m-1317 -16 c-5 -13 -8 -13 -15 -2 -8 10 -11 10 -15 0 -2 -6
-9 -10 -14 -6 -15 9 1 24 26 24 18 0 23 -4 18 -16z m77 6 c0 -5 -5 -10 -11
-10 -5 0 -7 5 -4 10 3 6 8 10 11 10 2 0 4 -4 4 -10z m1240 -50 c0 -5 -10 -10
-22 -9 -22 0 -22 1 -3 9 11 5 21 9 23 9 1 1 2 -3 2 -9z m85 0 c-3 -5 -17 -10
-31 -10 -13 0 -24 5 -24 10 0 6 14 10 31 10 17 0 28 -4 24 -10z"/>
<path d="M1368 1923 c7 -3 16 -2 19 1 4 3 -2 6 -13 5 -11 0 -14 -3 -6 -6z"/>
<path d="M1716 1812 c-9 -10 -16 -33 -16 -52 0 -32 1 -32 36 -27 38 6 63 30
64 59 0 19 -5 23 -41 31 -18 5 -31 1 -43 -11z"/>
<path d="M706 1624 c-3 -26 -6 -62 -6 -80 0 -33 1 -34 41 -34 l42 0 -6 43
c-12 79 -27 117 -46 117 -14 0 -20 -11 -25 -46z"/>
<path d="M842 1398 l3 -63 48 -1 c26 -1 47 2 47 7 0 5 -6 9 -12 10 -7 0 -3 4
10 9 17 8 22 17 22 49 0 43 -12 51 -83 51 l-39 0 4 -62z"/>
<path d="M844 1294 c3 -9 6 -18 6 -21 0 -3 7 0 15 7 9 8 29 10 50 7 26 -4 35
-2 35 9 0 10 -14 14 -56 14 -47 0 -55 -3 -50 -16z"/>
<path d="M1082 1168 c-6 -7 -12 -31 -14 -53 l-3 -40 45 0 45 0 3 53 3 52 -34
0 c-19 0 -39 -6 -45 -12z"/>
<path d="M590 1098 c0 -15 6 -19 27 -16 37 4 40 25 3 30 -24 4 -30 1 -30 -14z"/>
<path d="M525 1068 c-4 -14 -25 -183 -25 -207 0 -10 10 -12 39 -8 25 3 41 1
44 -7 2 -6 0 -42 -5 -80 -7 -54 -6 -71 4 -77 15 -10 198 -12 222 -3 10 4 16
18 16 35 0 31 -11 36 -85 41 -35 3 -39 6 -40 28 0 26 -4 30 -30 30 -9 0 -15
-10 -15 -26 0 -20 -4 -25 -16 -20 -9 3 -18 6 -21 6 -2 0 3 8 13 18 16 16 16
17 1 20 -10 2 -17 13 -17 27 0 28 21 35 113 35 63 0 68 2 77 26 6 14 7 36 4
48 -5 23 -7 23 -120 18 l-114 -5 0 57 c0 50 -2 56 -20 56 -11 0 -23 -6 -25
-12z"/>
</g>
</svg>
